<?xml version="1.0" standalone="no"?>
<!DOCTYPE svg PUBLIC "-//W3C//DTD SVG 20010904//EN"
 "http://www.w3.org/TR/2001/REC-SVG-20010904/DTD/svg10.dtd">
<svg version="1.0" xmlns="http://www.w3.org/2000/svg"
 width="200.000000pt" height="200.000000pt" viewBox="0 0 200.000000 200.000000"
 preserveAspectRatio="xMidYMid meet">

<g transform="translate(0.000000,200.000000) scale(0.100000,-0.100000)"
fill="#000000" stroke="none">
<path d="M605 1676 c-23 -10 -56 -56 -139 -191 -97 -159 -108 -181 -103 -214
3 -20 34 -106 70 -191 61 -145 64 -157 50 -178 -102 -162 -193 -322 -193 -341
0 -13 26 -86 57 -162 59 -143 82 -171 121 -150 9 5 66 59 127 120 l110 111
162 0 c154 0 163 1 187 23 39 36 226 347 226 378 0 14 -27 91 -59 170 l-59
144 157 5 c110 3 163 9 174 18 14 12 194 297 226 359 14 28 6 66 -21 90 -19
17 -53 18 -542 20 -421 2 -527 0 -551 -11z"/>
</g>
</svg>
